HIERARCHY
ROOT newVegas:Hips
{
	OFFSET 0.000000 96.479958 0.000000
	CHANNELS 6 Xposition Yposition Zposition Xrotation Yrotation Zrotation
	JOINT newVegas:Pelvis
	{
		OFFSET 0.000000 0.000000 0.000000
		CHANNELS 3 Xrotation Yrotation Zrotation
		JOINT newVegas:LeftUpLeg
		{
			OFFSET 18.735201 -5.666702 -4.541200
			CHANNELS 3 Xrotation Yrotation Zrotation
			JOINT newVegas:LeftLeg
			{
				OFFSET -0.021200 -31.938179 0.493100
				CHANNELS 3 Xrotation Yrotation Zrotation
				JOINT newVegas:LeftFoot
				{
					OFFSET 0.021200 -31.938179 -4.336299
					CHANNELS 3 Xrotation Yrotation Zrotation
					JOINT newVegas:LeftToeBase
					{
						OFFSET 0.943001 -26.722000 15.023500
						CHANNELS 3 Xrotation Yrotation Zrotation
						End Site
						{
							OFFSET 0.000000 30.670183 0.000000
						}
					}
				}
				JOINT newVegas:Left_PantLeg
				{
					OFFSET 0.663870 -9.044666 -1.108900
					CHANNELS 3 Xrotation Yrotation Zrotation
					End Site
					{
						OFFSET 1.415995 20.635357 0.000000
					}
				}
			}
		}
		JOINT newVegas:RightUpLeg
		{
			OFFSET -18.735201 -5.666702 -4.541200
			CHANNELS 3 Xrotation Yrotation Zrotation
			JOINT newVegas:RightLeg
			{
				OFFSET 0.018946 -31.938133 0.493100
				CHANNELS 3 Xrotation Yrotation Zrotation
				JOINT newVegas:RightFoot
				{
					OFFSET -0.018946 -31.938126 -4.336299
					CHANNELS 3 Xrotation Yrotation Zrotation
					JOINT newVegas:RightToeBase
					{
						OFFSET -0.943001 -26.722004 15.023500
						CHANNELS 3 Xrotation Yrotation Zrotation
						End Site
						{
							OFFSET 0.000000 30.670187 0.000000
						}
					}
				}
				JOINT newVegas:Right_PantLeg
				{
					OFFSET -0.661674 -9.044716 -1.108900
					CHANNELS 3 Xrotation Yrotation Zrotation
					End Site
					{
						OFFSET -1.415958 20.635269 0.000000
					}
				}
			}
		}
	}
	JOINT newVegas:Spine
	{
		OFFSET 0.000000 10.199997 -0.299500
		CHANNELS 3 Xrotation Yrotation Zrotation
		JOINT newVegas:Spine1
		{
			OFFSET 0.000000 11.900002 -1.516600
			CHANNELS 3 Xrotation Yrotation Zrotation
			JOINT newVegas:Spine2
			{
				OFFSET 0.000000 13.600006 -2.842500
				CHANNELS 3 Xrotation Yrotation Zrotation
				JOINT newVegas:Neck
				{
					OFFSET 0.000000 9.624100 -2.890100
					CHANNELS 3 Xrotation Yrotation Zrotation
					JOINT newVegas:Head
					{
						OFFSET 0.000000 14.068802 -1.351900
						CHANNELS 3 Xrotation Yrotation Zrotation
						JOINT newVegas:Hair_Back
						{
							OFFSET 0.000000 3.231903 -17.524799
							CHANNELS 3 Xrotation Yrotation Zrotation
							End Site
							{
								OFFSET 0.000000 19.849884 0.000000
							}
						}
						JOINT newVegas:Hair_Front
						{
							OFFSET 0.000000 31.260406 4.573800
							CHANNELS 3 Xrotation Yrotation Zrotation
							JOINT newVegas:Hair_Front1
							{
								OFFSET 0.000000 2.284103 11.993300
								CHANNELS 3 Xrotation Yrotation Zrotation
								JOINT newVegas:Hair_Front2
								{
									OFFSET 0.000000 2.284103 11.993300
									CHANNELS 3 Xrotation Yrotation Zrotation
									End Site
									{
										OFFSET 0.000000 12.208862 0.000000
									}
								}
							}
						}
						JOINT newVegas:Jowel
						{
							OFFSET 0.000000 -7.458206 6.864100
							CHANNELS 3 Xrotation Yrotation Zrotation
							End Site
							{
								OFFSET 0.000000 19.849884 0.000000
							}
						}
					}
				}
				JOINT newVegas:LeftShoulder
				{
					OFFSET 15.263000 10.923401 -0.547700
					CHANNELS 3 Xrotation Yrotation Zrotation
					JOINT newVegas:LeftArm
					{
						OFFSET 25.438599 -2.830597 -13.032500
						CHANNELS 3 Xrotation Yrotation Zrotation
						JOINT newVegas:LeftForeArm
						{
							OFFSET 29.960503 0.000000 0.000000
							CHANNELS 3 Xrotation Yrotation Zrotation
							JOINT newVegas:LeftHand
							{
								OFFSET 27.849251 0.000000 0.000000
								CHANNELS 3 Xrotation Yrotation Zrotation
								JOINT newVegas:LeftHandThumb1
								{
									OFFSET 4.487587 -3.305161 6.305391
									CHANNELS 3 Xrotation Yrotation Zrotation
									JOINT newVegas:LeftHandThumb2
									{
										OFFSET 5.480453 -3.164139 3.164143
										CHANNELS 3 Xrotation Yrotation Zrotation
										JOINT newVegas:LeftHandThumb3
										{
											OFFSET 5.159721 -2.978973 2.978967
											CHANNELS 3 Xrotation Yrotation Zrotation
											End Site
											{
												OFFSET 2.494507 5.926697 1.738678
											}
										}
									}
								}
								JOINT newVegas:LeftHandIndex1
								{
									OFFSET 18.578728 -0.527832 5.208049
									CHANNELS 3 Xrotation Yrotation Zrotation
									JOINT newVegas:LeftHandIndex2
									{
										OFFSET 3.192009 0.000000 0.000000
										CHANNELS 3 Xrotation Yrotation Zrotation
										JOINT newVegas:LeftHandIndex3
										{
											OFFSET 3.835129 0.000000 0.000000
											CHANNELS 3 Xrotation Yrotation Zrotation
											End Site
											{
												OFFSET -0.034599 3.816971 0.371180
											}
										}
									}
								}
								JOINT newVegas:LeftHandMiddle1
								{
									OFFSET 18.476105 0.000000 0.000000
									CHANNELS 3 Xrotation Yrotation Zrotation
									JOINT newVegas:LeftHandMiddle2
									{
										OFFSET 3.324875 0.000000 0.000000
										CHANNELS 3 Xrotation Yrotation Zrotation
										JOINT newVegas:LeftHandMiddle3
										{
											OFFSET 4.596550 0.000000 0.000000
											CHANNELS 3 Xrotation Yrotation Zrotation
											End Site
											{
												OFFSET 0.057701 4.578827 0.399218
											}
										}
									}
								}
								JOINT newVegas:LeftHandRing1
								{
									OFFSET 17.732719 0.121887 -4.201567
									CHANNELS 3 Xrotation Yrotation Zrotation
									JOINT newVegas:LeftHandRing2
									{
										OFFSET 2.733170 0.000000 0.000000
										CHANNELS 3 Xrotation Yrotation Zrotation
										JOINT newVegas:LeftHandRing3
										{
											OFFSET 3.178268 0.000000 0.000000
											CHANNELS 3 Xrotation Yrotation Zrotation
											End Site
											{
												OFFSET 0.119102 3.170624 0.185394
											}
										}
									}
								}
								JOINT newVegas:LeftHandPinky1
								{
									OFFSET 15.989624 -0.606689 -7.535461
									CHANNELS 3 Xrotation Yrotation Zrotation
									JOINT newVegas:LeftHandPinky2
									{
										OFFSET 2.538986 0.000000 0.000000
										CHANNELS 3 Xrotation Yrotation Zrotation
										JOINT newVegas:LeftHandPinky3
										{
											OFFSET 2.593102 0.000000 0.000000
											CHANNELS 3 Xrotation Yrotation Zrotation
											End Site
											{
												OFFSET -0.150902 2.584198 0.152708
											}
										}
									}
								}
							}
							JOINT newVegas:Left_Sleeve
							{
								OFFSET 0.267448 -0.649796 0.577675
								CHANNELS 3 Xrotation Yrotation Zrotation
								End Site
								{
									OFFSET 0.000000 15.991241 0.000000
								}
							}
							JOINT newVegas:Left_CapeC
							{
								OFFSET 15.715958 -8.608795 -6.935905
								CHANNELS 3 Xrotation Yrotation Zrotation
								JOINT newVegas:Left_CapeC1
								{
									OFFSET 0.000000 -8.688499 0.000000
									CHANNELS 3 Xrotation Yrotation Zrotation
									End Site
									{
										OFFSET 0.000000 8.688499 0.000000
									}
								}
							}
						}
						JOINT newVegas:Left_CapeB
						{
							OFFSET 26.118385 -8.608795 -7.079235
							CHANNELS 3 Xrotation Yrotation Zrotation
							JOINT newVegas:Left_CapeB1
							{
								OFFSET 0.000000 -8.688499 0.000000
								CHANNELS 3 Xrotation Yrotation Zrotation
								End Site
								{
									OFFSET 0.000000 8.688499 0.000000
								}
							}
						}
						JOINT newVegas:Left_CapeA
						{
							OFFSET 5.115639 -8.608795 -10.395809
							CHANNELS 3 Xrotation Yrotation Zrotation
							JOINT newVegas:Left_CapeA1
							{
								OFFSET 0.000000 -8.688499 0.000000
								CHANNELS 3 Xrotation Yrotation Zrotation
								End Site
								{
									OFFSET 0.000000 8.688499 0.000000
								}
							}
						}
					}
				}
				JOINT newVegas:RightShoulder
				{
					OFFSET -15.263000 10.923401 -0.547700
					CHANNELS 3 Xrotation Yrotation Zrotation
					JOINT newVegas:RightArm
					{
						OFFSET -25.438599 -2.830597 -13.032500
						CHANNELS 3 Xrotation Yrotation Zrotation
						JOINT newVegas:RightForeArm
						{
							OFFSET -29.960503 0.000000 0.000000
							CHANNELS 3 Xrotation Yrotation Zrotation
							JOINT newVegas:RightHand
							{
								OFFSET -27.849251 0.000000 0.000000
								CHANNELS 3 Xrotation Yrotation Zrotation
								JOINT newVegas:RightHandThumb1
								{
									OFFSET -4.487587 -3.305161 6.305391
									CHANNELS 3 Xrotation Yrotation Zrotation
									JOINT newVegas:RightHandThumb2
									{
										OFFSET -5.480453 -3.164139 3.164143
										CHANNELS 3 Xrotation Yrotation Zrotation
										JOINT newVegas:RightHandThumb3
										{
											OFFSET -5.159721 -2.978973 2.978967
											CHANNELS 3 Xrotation Yrotation Zrotation
											End Site
											{
												OFFSET -2.494507 5.926697 1.738678
											}
										}
									}
								}
								JOINT newVegas:RightHandIndex1
								{
									OFFSET -18.578728 -0.527832 5.208049
									CHANNELS 3 Xrotation Yrotation Zrotation
									JOINT newVegas:RightHandIndex2
									{
										OFFSET -3.192009 0.000000 0.000000
										CHANNELS 3 Xrotation Yrotation Zrotation
										JOINT newVegas:RightHandIndex3
										{
											OFFSET -3.835129 0.000000 0.000000
											CHANNELS 3 Xrotation Yrotation Zrotation
											End Site
											{
												OFFSET 0.034599 3.816971 0.371180
											}
										}
									}
								}
								JOINT newVegas:RightHandMiddle1
								{
									OFFSET -18.476105 0.000000 0.000000
									CHANNELS 3 Xrotation Yrotation Zrotation
									JOINT newVegas:RightHandMiddle2
									{
										OFFSET -3.324875 0.000000 0.000000
										CHANNELS 3 Xrotation Yrotation Zrotation
										JOINT newVegas:RightHandMiddle3
										{
											OFFSET -4.596550 0.000000 0.000000
											CHANNELS 3 Xrotation Yrotation Zrotation
											End Site
											{
												OFFSET -0.057701 4.578827 0.399218
											}
										}
									}
								}
								JOINT newVegas:RightHandRing1
								{
									OFFSET -17.732719 0.121887 -4.201567
									CHANNELS 3 Xrotation Yrotation Zrotation
									JOINT newVegas:RightHandRing2
									{
										OFFSET -2.733170 0.000000 0.000000
										CHANNELS 3 Xrotation Yrotation Zrotation
										JOINT newVegas:RightHandRing3
										{
											OFFSET -3.178268 0.000000 0.000000
											CHANNELS 3 Xrotation Yrotation Zrotation
											End Site
											{
												OFFSET -0.119102 3.170624 0.185394
											}
										}
									}
								}
								JOINT newVegas:RightHandPinky1
								{
									OFFSET -15.989624 -0.606689 -7.535461
									CHANNELS 3 Xrotation Yrotation Zrotation
									JOINT newVegas:RightHandPinky2
									{
										OFFSET -2.538986 0.000000 0.000000
										CHANNELS 3 Xrotation Yrotation Zrotation
										JOINT newVegas:RightHandPinky3
										{
											OFFSET -2.593102 0.000000 0.000000
											CHANNELS 3 Xrotation Yrotation Zrotation
											End Site
											{
												OFFSET 0.150902 2.584198 0.152708
											}
										}
									}
								}
							}
							JOINT newVegas:Right_CapeC
							{
								OFFSET -15.715958 -8.608795 -6.935905
								CHANNELS 3 Xrotation Yrotation Zrotation
								JOINT newVegas:Right_CapeC1
								{
									OFFSET 0.000000 -8.688499 0.000000
									CHANNELS 3 Xrotation Yrotation Zrotation
									End Site
									{
										OFFSET 0.000000 8.688499 0.000000
									}
								}
							}
							JOINT newVegas:Right_Sleeve
							{
								OFFSET -0.267448 -0.649994 0.577675
								CHANNELS 3 Xrotation Yrotation Zrotation
								End Site
								{
									OFFSET 0.000000 15.991302 0.000000
								}
							}
						}
						JOINT newVegas:Right_CapeA
						{
							OFFSET -5.115540 -8.608795 -10.395824
							CHANNELS 3 Xrotation Yrotation Zrotation
							JOINT newVegas:Right_CapeA1
							{
								OFFSET 0.000000 -8.688499 0.000000
								CHANNELS 3 Xrotation Yrotation Zrotation
								End Site
								{
									OFFSET 0.000000 8.688499 0.000000
								}
							}
						}
						JOINT newVegas:Right_CapeB
						{
							OFFSET -26.118187 -8.608795 -7.079266
							CHANNELS 3 Xrotation Yrotation Zrotation
							JOINT newVegas:Right_CapeB1
							{
								OFFSET 0.000000 -8.688499 0.000000
								CHANNELS 3 Xrotation Yrotation Zrotation
								End Site
								{
									OFFSET 0.000000 8.688499 0.000000
								}
							}
						}
					}
				}
				JOINT newVegas:Left_Collar
				{
					OFFSET 18.625099 8.655502 8.828100
					CHANNELS 3 Xrotation Yrotation Zrotation
					JOINT newVegas:Left_Collar1
					{
						OFFSET 14.783401 10.540405 -1.259500
						CHANNELS 3 Xrotation Yrotation Zrotation
						End Site
						{
							OFFSET 0.000000 18.199875 0.000000
						}
					}
				}
				JOINT newVegas:Collar_Back
				{
					OFFSET 0.000000 15.630707 -20.132601
					CHANNELS 3 Xrotation Yrotation Zrotation
					End Site
					{
						OFFSET 0.000000 22.523010 0.000000
					}
				}
				JOINT newVegas:Left_Peck
				{
					OFFSET 17.239599 -5.132599 25.482599
					CHANNELS 3 Xrotation Yrotation Zrotation
					End Site
					{
						OFFSET 0.000000 22.523010 0.000000
					}
				}
				JOINT newVegas:Right_Peck
				{
					OFFSET -17.239599 -5.132202 25.482599
					CHANNELS 3 Xrotation Yrotation Zrotation
					End Site
					{
						OFFSET 0.000000 22.523010 0.000000
					}
				}
				JOINT newVegas:Right_Collar
				{
					OFFSET -18.625099 8.655792 8.828100
					CHANNELS 3 Xrotation Yrotation Zrotation
					JOINT newVegas:Right_Collar1
					{
						OFFSET -14.783401 10.539993 -1.259500
						CHANNELS 3 Xrotation Yrotation Zrotation
						End Site
						{
							OFFSET 0.000000 18.199631 0.000000
						}
					}
				}
			}
		}
		JOINT newVegas:Belly
		{
			OFFSET 0.000000 -6.540398 9.014299
			CHANNELS 3 Xrotation Yrotation Zrotation
			End Site
			{
				OFFSET 0.000000 11.566666 0.000000
			}
		}
	}
	JOINT newVegas:ElvisFacialAnim_Joint
	{
		OFFSET 1.000000 -95.330101 -8.825800
		CHANNELS 3 Xrotation Yrotation Zrotation
		End Site
		{
			OFFSET 0.000000 35.315800 0.000000
		}
	}
}
MOTION
Frames: 4
Frame Time: 0.033333
19.373493 251.294403 367.802795 -48.641387 19.254180 23.907983 -0.000000 0.000000 0.000000 -90.486954 33.374879 42.633689 127.829231 4.654096 -6.412207 -15.964198 1.098730 -16.380742 -0.000001 0.000001 -0.000001 0.000000 -0.000001 0.000003 -78.087333 13.930523 -32.963948 32.465259 9.267518 -11.730442 8.792958 23.508382 24.910250 0.000002 0.000001 0.000000 -0.000000 -0.000000 -0.000003 2.238912 -3.201005 -0.596730 5.622721 -0.361592 5.103738 5.107153 -0.620471 5.637749 4.871536 -0.243813 -3.618382 4.871530 -0.243815 -3.618373 -0.000002 -0.000001 -0.000000 4.871526 -0.243807 -3.618376 4.871531 -0.243792 -3.618379 -0.000000 -0.000000 -0.000000 -0.000002 -0.000001 -0.000000 -6.223891 -24.884235 47.526796 -43.844101 -1.897768 -43.429778 0.000008 -50.101555 0.000016 -111.975877 -22.994276 17.383665 58.022437 -20.027721 2.908815 8.054619 14.020580 -14.007600 -0.000000 -0.000002 -0.000003 4.831108 8.097833 -79.265602 4.220770 5.620106 -73.794730 -0.000000 -0.000001 -0.000001 5.842139 8.198561 -89.236961 4.091414 5.581060 -72.469393 -0.000000 0.000000 -0.000004 4.484610 8.021909 -75.787806 4.091423 5.581062 -72.469393 -0.000002 -0.000001 -0.000001 4.484629 8.021960 -75.787813 4.091410 5.581047 -72.469393 0.000001 -0.000003 -0.000004 0.000000 0.000000 -0.000001 0.000000 0.000000 -0.000001 0.000000 0.000001 -0.000001 -0.000000 -0.000001 -0.000001 -0.000000 -0.000002 -0.000001 -0.000000 -0.000001 -0.000001 -0.000002 -0.000002 -0.000000 5.521952 12.144877 -7.408770 -47.700016 25.768019 40.977904 0.000009 1.190008 -0.000009 -81.783066 8.536287 -29.103381 -3.803912 7.244742 0.008463 -4.302303 -10.756718 -8.596292 0.000000 -0.000003 -0.000004 9.343881 5.320019 -3.464870 0.607586 -2.301932 29.567988 -0.000005 -0.000001 -0.000000 -0.339616 -2.842438 29.783381 2.524231 -4.140969 62.716744 0.000001 -0.000001 -0.000003 0.859152 -4.937476 39.533108 1.651773 -3.559280 49.778719 -0.000001 0.000001 0.000001 -1.424848 -11.573577 6.399925 1.188717 -3.109813 41.830807 0.000002 -0.000002 -0.000005 0.000001 0.000000 -0.000000 0.000001 0.000000 -0.000001 0.000001 0.000001 -0.000000 0.000001 0.000001 -0.000001 0.000001 0.000002 -0.000001 0.000001 0.000001 -0.000001 0.000001 0.000001 -0.000001 -0.000000 0.000000 -0.000000 -0.000000 0.000000 -0.000000 -0.000000 0.000000 -0.000000 -0.000000 0.000000 -0.000000 -0.000000 0.000000 -0.000000 -0.000000 0.000000 -0.000000 -0.000000 0.000000 -0.000000 -0.000002 -0.000001 0.000001 -0.000000 0.000000 0.000000 
19.767487 255.579102 379.250397 -49.927327 22.355388 24.920536 0.000002 -0.000000 -0.000000 -82.715736 27.047160 42.217816 134.046287 1.537551 -5.125570 -14.176701 -1.899364 -15.211171 -0.000001 0.000002 -0.000000 -0.000003 -0.000003 -0.000000 -72.494713 13.986872 -37.751224 33.946139 7.377860 -12.337485 3.107929 23.370078 26.073023 0.000000 0.000001 -0.000000 0.000000 -0.000000 -0.000001 1.855547 -2.933404 -1.280356 4.934097 -0.479514 4.924528 4.564567 -0.891007 5.296716 4.947952 -0.370595 -3.499939 4.947943 -0.370588 -3.499942 -0.000003 0.000003 -0.000000 4.947953 -0.370586 -3.499945 4.947956 -0.370594 -3.499942 -0.000001 -0.000001 -0.000000 -0.000003 0.000003 0.000000 -6.132071 -24.413179 48.333188 -47.963310 2.916410 -42.384319 0.000004 -52.280635 0.000015 -110.486841 -21.368117 16.722762 58.022423 -20.027732 2.908828 7.954539 14.058060 -13.998235 0.000003 -0.000001 -0.000006 4.713179 8.074456 -78.087019 4.137831 5.595456 -72.945997 -0.000000 -0.000000 0.000002 5.741269 8.196376 -88.248066 4.091412 5.581060 -72.469400 -0.000000 -0.000000 -0.000004 4.484610 8.021909 -75.787806 4.091419 5.581063 -72.469400 -0.000001 -0.000001 -0.000001 4.484631 8.021963 -75.787806 4.091405 5.581048 -72.469407 0.000000 -0.000007 -0.000002 -0.000001 0.000000 -0.000000 -0.000001 0.000000 -0.000000 -0.000001 0.000001 -0.000000 0.000002 0.000000 -0.000001 0.000002 -0.000001 -0.000000 0.000002 0.000000 -0.000001 0.000000 -0.000001 -0.000000 6.017601 9.595413 -5.103731 -46.379812 24.057617 41.191959 -0.000010 1.872689 0.000018 -80.238330 5.805220 -24.168546 -3.311734 5.935168 -0.499930 -4.270829 -11.710901 -8.701080 -0.000001 -0.000004 -0.000001 9.589852 4.394593 -3.230978 0.592705 -2.275524 29.195353 0.000000 0.000000 -0.000000 -0.399810 -2.328010 24.729207 2.094239 -3.889814 56.582202 0.000002 0.000001 0.000004 0.675161 -4.650926 35.450178 1.245652 -3.172156 42.869467 -0.000003 -0.000001 0.000005 -1.396104 -10.493636 7.943859 1.024111 -2.915722 38.699684 -0.000003 0.000005 -0.000001 -0.000001 0.000000 -0.000000 -0.000001 -0.000001 0.000000 -0.000001 0.000000 -0.000000 -0.000001 -0.000001 0.000000 -0.000000 -0.000001 0.000000 -0.000001 -0.000001 0.000000 -0.000000 -0.000001 0.000000 -0.000003 -0.000000 -0.000000 -0.000003 -0.000000 -0.000000 -0.000003 -0.000000 -0.000000 -0.000003 -0.000000 -0.000000 -0.000003 -0.000000 -0.000000 -0.000003 -0.000000 -0.000000 -0.000003 -0.000000 -0.000000 -0.000001 -0.000001 -0.000000 0.000002 -0.000000 -0.000000 
19.987213 259.603668 390.285370 -50.392613 25.112840 25.865160 0.000001 0.000001 -0.000001 -73.829974 21.241236 38.926706 136.632429 -2.104431 -4.109383 -13.410670 -2.374899 -16.310005 0.000001 0.000000 -0.000002 0.000002 0.000004 0.000002 -68.458283 13.000912 -41.073633 36.501491 6.554374 -12.725687 -3.125641 22.734121 25.265136 0.000003 0.000002 -0.000001 -0.000001 0.000000 -0.000002 1.521108 -2.643355 -2.027705 4.280130 -0.573301 4.585766 4.093199 -0.981259 4.757151 5.004339 -0.479181 -3.412417 5.004343 -0.479185 -3.412418 0.000000 -0.000001 -0.000001 5.004341 -0.479166 -3.412417 5.004474 -0.479170 -3.412417 -0.000000 0.000001 0.000000 0.000000 -0.000001 -0.000001 -6.334940 -24.104849 48.528685 -54.543183 9.073131 -39.413798 0.000002 -55.310329 -0.000016 -105.474445 -19.069157 16.420022 58.022450 -20.027725 2.908837 7.865741 14.091041 -13.990049 0.000001 -0.000003 -0.000003 4.578902 8.044771 -76.738856 4.037458 5.563821 -71.913682 -0.000000 -0.000000 0.000005 5.622269 8.191570 -87.080725 4.091413 5.581060 -72.469393 -0.000000 0.000001 -0.000001 4.484609 8.021908 -75.787793 4.091418 5.581068 -72.469379 0.000000 -0.000001 0.000001 4.484624 8.021961 -75.787786 4.091394 5.581053 -72.469373 -0.000000 -0.000002 -0.000002 0.000001 0.000001 -0.000001 0.000001 0.000001 -0.000001 0.000001 0.000002 -0.000002 -0.000000 0.000002 -0.000001 -0.000000 0.000001 -0.000001 -0.000000 0.000002 -0.000001 -0.000000 0.000001 -0.000001 6.594760 6.950323 -3.203781 -44.763540 22.055511 42.296107 0.000007 3.807026 0.000020 -79.608696 3.393911 -20.305570 -2.839253 4.646130 -0.983833 -4.241830 -12.715720 -8.812148 -0.000002 -0.000003 0.000001 9.811418 3.505871 -2.652593 0.584612 -2.261004 28.990775 -0.000004 0.000002 0.000001 -0.409886 -1.845517 20.051282 1.710040 -3.607653 50.710968 0.000002 -0.000001 -0.000005 0.523983 -4.374519 31.674589 0.902264 -2.756959 36.237278 0.000001 0.000001 -0.000000 -1.403456 -9.451831 9.680233 0.882871 -2.730323 35.832508 0.000000 0.000003 -0.000001 0.000002 -0.000000 -0.000000 0.000002 0.000000 -0.000000 0.000002 -0.000000 -0.000000 -0.000000 0.000000 0.000001 -0.000000 0.000000 0.000000 -0.000000 0.000000 0.000001 -0.000000 -0.000001 0.000000 -0.000001 -0.000002 -0.000000 -0.000001 -0.000002 -0.000000 -0.000001 -0.000002 -0.000000 -0.000001 -0.000002 -0.000000 -0.000001 -0.000002 -0.000000 -0.000001 -0.000002 -0.000000 -0.000001 -0.000002 -0.000000 0.000005 -0.000001 -0.000001 0.000001 0.000001 -0.000001 
19.942730 263.262665 400.880066 -49.261752 27.438914 26.327492 0.000001 0.000001 0.000002 -67.716934 16.497116 35.149841 136.988077 -6.129837 -3.154127 -13.462649 0.894566 -17.685631 -0.000001 -0.000001 -0.000000 -0.000002 0.000003 0.000002 -66.478723 10.929256 -42.148916 37.247825 7.271114 -13.331833 -6.389443 22.760968 22.507934 0.000001 -0.000000 0.000000 -0.000000 0.000000 -0.000000 1.239387 -2.428090 -2.862670 3.682147 -0.639516 4.117737 3.645515 -0.905749 4.115776 5.047307 -0.573306 -3.353223 5.047283 -0.573309 -3.353215 -0.000000 -0.000002 0.000000 5.047439 -0.573298 -3.353224 5.047291 -0.573365 -3.353207 0.000000 -0.000001 0.000001 -0.000000 -0.000002 0.000000 -6.828809 -23.967839 47.968183 -63.701916 14.904291 -34.025622 -0.000017 -59.228477 -0.000020 -96.787858 -16.108806 16.488399 58.022443 -20.027718 2.908835 7.789082 14.120978 -13.982534 -0.000000 -0.000003 0.000000 4.427726 8.007377 -75.212008 3.919025 5.523930 -70.687793 -0.000000 -0.000000 -0.000001 5.484248 8.182978 -85.725281 4.091414 5.581062 -72.469393 -0.000000 -0.000000 -0.000000 4.484610 8.021905 -75.787793 4.091422 5.581069 -72.469400 0.000000 0.000003 0.000001 4.484637 8.021959 -75.787800 4.091403 5.581050 -72.469393 -0.000001 -0.000002 -0.000001 0.000001 0.000002 -0.000001 0.000001 0.000002 -0.000001 0.000001 0.000002 -0.000001 0.000000 -0.000003 -0.000000 0.000000 -0.000004 -0.000001 0.000000 -0.000003 -0.000000 0.000000 -0.000004 -0.000000 7.122905 4.507214 -1.749082 -42.829155 19.778464 44.259967 0.000000 7.009063 -0.000002 -79.532307 1.480324 -17.965908 -2.407244 3.442701 -1.419737 -4.217863 -13.699323 -8.921711 0.000000 -0.000002 -0.000001 10.018241 2.696485 -1.867179 0.581567 -2.255502 28.913871 -0.000003 0.000000 -0.000000 -0.381470 -1.415160 15.895418 1.386167 -3.316851 45.351787 0.000001 -0.000002 -0.000001 0.405664 -4.120973 28.323323 0.631954 -2.344329 30.169106 0.000003 -0.000001 0.000002 -1.456513 -8.498840 11.451002 0.766351 -2.561421 33.308661 0.000001 0.000003 0.000001 0.000000 -0.000000 0.000000 0.000000 -0.000000 0.000000 0.000000 -0.000000 0.000000 -0.000001 0.000000 0.000001 -0.000001 0.000000 0.000001 -0.000001 0.000000 0.000001 -0.000001 -0.000000 0.000001 -0.000001 0.000005 0.000002 -0.000001 0.000005 0.000002 -0.000001 0.000005 0.000002 -0.000001 0.000005 0.000002 -0.000001 0.000005 0.000002 -0.000001 0.000005 0.000002 -0.000001 0.000005 0.000002 0.000002 -0.000001 -0.000001 0.000001 0.000001 0.000002 
